<svg version="1.1" xmlns="http://www.w3.org/2000/svg" xmlns:xlink="http://www.w3.org/1999/xlink" width="24px" height="24px" viewBox="0,0,256,256"><g fill="#000000" fill-rule="nonzero" stroke="none" stroke-width="1" stroke-linecap="butt" stroke-linejoin="miter" stroke-miterlimit="10" stroke-dasharray="" stroke-dashoffset="0" font-family="none" font-weight="none" font-size="none" text-anchor="none" style="mix-blend-mode: normal"><g transform="translate(255.92007,0) rotate(90) scale(10.66667,10.66667)"><path d="M21.68,17.65l-7,-14c-0.50947,-1.01275 -1.54632,-1.65182 -2.68,-1.65182c-1.13368,0 -2.17053,0.63906 -2.68,1.65182l-7,14c-0.56339,1.13196 -0.35657,2.49565 0.51712,3.40967c0.87369,0.91401 2.22667,1.18211 3.38288,0.67033l5.37,-2.4v0c0.26227,-0.11 0.55773,-0.11 0.82,0l5.37,2.4c1.15622,0.51178 2.50919,0.24368 3.38288,-0.67033c0.87369,-0.91401 1.08051,-2.2777 0.51712,-3.40967zM19.68,19.65c-0.29245,0.30453 -0.74466,0.39257 -1.13,0.22l-5.37,-2.39c-0.7766,-0.34569 -1.6634,-0.34569 -2.44,0l-5.33,2.42c-0.38303,0.16644 -0.82916,0.07732 -1.11885,-0.22351c-0.28969,-0.30083 -0.36192,-0.75 -0.18115,-1.12649l7,-14c0.1711,-0.33397 0.51476,-0.54404 0.89,-0.54404c0.37524,0 0.7189,0.21007 0.89,0.54404l7,14c0.18532,0.37514 0.11749,0.82599 -0.17,1.13z"></path></g></g></svg>